<?xml version="1.0" encoding="UTF-8"?>
<svg width="55px" height="42px" viewBox="0 0 55 42" version="1.1" xmlns="http://www.w3.org/2000/svg" xmlns:xlink="http://www.w3.org/1999/xlink">
    <title>Group</title>
    <g id="Page-1" stroke="none" stroke-width="1" fill="none" fill-rule="evenodd">
        <g id="Artboard" transform="translate(-433.000000, -446.000000)" fill="#FF1212" fill-rule="nonzero">
            <g id="Group" transform="translate(433.000000, 446.000000)">
                <path d="M40.8640227,0 C47.6848686,0 52.8093831,3.80884594 54.2747089,9.55494973 L54.3484419,9.85915493 L54.4334278,10.2253521 L49.2492918,10.2253521 L49.1359773,9.91549296 C47.917847,6.56338028 45,4.47887324 40.8073654,4.47887324 C34.3197305,4.47887324 31.1789017,9.80767806 30.248652,16.6586438 L30.1667039,17.3155971 C30.1290353,17.646253 30.0962976,17.9800865 30.068368,18.3166866 L30.0188834,18.9934537 C30.0116923,19.1068224 30.0050264,19.220468 29.9988811,19.3343754 L29.9682202,20.0208385 C29.9641392,20.1357318 29.9605696,20.2508565 29.9575071,20.3661972 C29.9386213,20.5539906 29.9323261,20.741784 29.9302277,20.9379238 L29.9291785,21.2394366 L30.0424929,21.2394366 C31.6855524,17.6338028 35.878187,14.7042254 41.4305949,14.7042254 C49.1127636,14.7042254 54.8390832,20.2647963 54.9966657,27.8204162 L55,28.1971831 C55,36.1971831 48.8810198,42 40.5240793,42 C33.0655605,42 25.1629869,36.9221392 25.0024864,22.2047348 L25,21.6901408 C25,8 30.8640227,0 40.8640227,0 Z M40.5720789,19 C35.2185129,19 31.1450718,22.5762071 31.0037918,27.5261496 L31,27.8202765 C31,32.9354839 35.1517451,37 40.4855842,37 C45.6975215,37 49.8519643,33.1569118 49.99613,28.2500448 L50,27.9308756 C50,22.7327189 46.0500759,19 40.5720789,19 Z" id="Shape"></path>
                <polygon id="Path" points="16 42 16 1 10.9714286 1 0 8.84199584 0 13.984754 10.9142857 6.42688843 11.0285714 6.42688843 11.0285714 42"></polygon>
            </g>
        </g>
    </g>
</svg>