<?xml version="1.0" encoding="UTF-8"?>
<svg width="92px" height="92px" viewBox="0 0 92 92" version="1.1" xmlns="http://www.w3.org/2000/svg" xmlns:xlink="http://www.w3.org/1999/xlink">
    <title>Shape</title>
    <g id="Page-1" stroke="none" stroke-width="1" fill="none" fill-rule="evenodd">
        <path d="M59.6717791,0.986039792 C60.2469273,0.986039792 60.7667957,1.31424611 61.017276,1.82291317 L61.0741599,1.95375403 L91.1617306,81.223639 C91.2101366,81.3511712 91.2408444,81.4845086 91.253173,81.6199369 L91.2593498,81.7559247 L91.2593498,90.0481132 C91.2593498,90.8278094 90.6644618,91.4685619 89.9038099,91.5412467 L89.7593498,91.5481132 L66.9991033,91.5481132 C66.4468185,91.5481132 65.9991033,91.100398 65.9991033,90.5481132 L65.9991033,89.5470398 C65.9990632,89.034204 66.3851006,88.6115326 66.882439,88.5537675 L66.9991033,88.5470829 L66.9991033,88.5470829 L88.259,88.548 L88.259,82.032 L58.636,3.986 L33.253,3.986 L3.734,82.03 L3.734,88.548 L26.814,88.548 L30.8099163,77.707852 C30.9938129,77.2090002 31.4243025,76.8518639 31.9330701,76.7537829 L32.0736392,76.7335446 L32.2173312,76.7266809 L59.6717791,76.7266809 C60.2444122,76.7266809 60.7625108,77.0520638 61.0142378,77.557427 L61.0714976,77.6874332 L64.5195105,86.639619 C64.7180131,87.1549977 64.4611343,87.7337128 63.9457556,87.9322154 C63.8310727,87.9763865 63.7092302,87.9990398 63.5863349,87.9990398 L62.5155024,87.9990398 C62.1019293,87.9990398 61.731026,87.7444521 61.5823521,87.3585263 L58.642,79.726 L33.262,79.726 L29.2668971,90.5669422 C29.0830006,91.065794 28.652511,91.4229303 28.1437433,91.5210113 L28.0031742,91.5412496 L27.8594823,91.5481132 L2.23410329,91.5481132 C1.45440718,91.5481132 0.813654614,90.9532252 0.740969871,90.1925733 L0.734103292,90.0481132 L0.734103292,81.7559247 C0.734103292,81.6199503 0.75259112,81.4848205 0.788894184,81.3542149 L0.83111075,81.2252535 L30.8143386,1.95536859 C31.0180212,1.41687102 31.5096796,1.04658585 32.0746779,0.992805272 L32.2173312,0.986039792 L59.6717791,0.986039792 Z M47.3085844,31.3281681 L47.3697016,31.4541863 L47.4227827,31.5949305 L56.0975617,58.1900843 C56.4000423,59.1174299 55.7521377,60.0687048 54.8027721,60.1496713 L54.6715056,60.1552338 L36.5649504,60.1552338 C35.5740992,60.1552338 34.8685326,59.2173745 35.112067,58.2813984 L35.1512214,58.1538652 L44.5829976,31.5587114 C45.0280489,30.3037825 46.7168284,30.2368862 47.3085844,31.3281681 Z M45.937,36.715 L38.688,57.155 L52.604,57.155 L45.937,36.715 Z" id="Shape" fill="#000000" fill-rule="nonzero"></path>
    </g>
</svg>