<?xml version="1.0" encoding="UTF-8"?>
<svg width="77px" height="90px" viewBox="0 0 77 90" version="1.1" xmlns="http://www.w3.org/2000/svg" xmlns:xlink="http://www.w3.org/1999/xlink">
    <title>Path</title>
    <g id="Page-1" stroke="none" stroke-width="1" fill="none" fill-rule="evenodd">
        <path d="M70.9990038,1.376 L70.9990038,2.376 C70.9990038,2.92828475 70.5512885,3.376 69.9990038,3.376 L3.23200378,3.376 L3.23200378,3.376 L3.23200378,86.43 L28.064,86.43 L28.0649504,57.8267587 C28.0649504,57.0957936 28.5878012,56.4869468 29.2799154,56.3538059 L29.4204903,56.3336253 L29.5649504,56.3267587 L64.726,56.326 L64.726,38.492 L29.5649504,38.4929675 C28.8339852,38.4929675 28.2251385,37.9701167 28.0919976,37.2780025 L28.0718169,37.1374275 L28.0649504,36.9929675 L28.0649504,22.1783273 C28.0649504,21.3986311 28.6598384,20.7578786 29.4204903,20.6851938 L29.5649504,20.6783273 L73.983,20.678 L73.9820673,6 C73.9819687,5.44771525 74.4296555,4.99997156 74.9819402,4.99993646 C74.9819614,4.99993646 74.9819826,4.99993646 74.9820038,5 L75.9830038,5 C76.5352661,5.00005757 76.982972,5.44773774 76.9830614,6 L76.9839927,22.1783273 L76.9839927,22.1783273 C76.9839927,22.9580234 76.3891047,23.5987759 75.6284528,23.6714607 L75.4839927,23.6783273 L31.064,23.678 L31.064,35.492 L66.2261213,35.4929675 C66.9570864,35.4929675 67.5659332,36.0158184 67.6990741,36.7079326 L67.7192547,36.8485075 L67.7261213,36.9929675 L67.7261213,57.8267587 C67.7261213,58.6064548 67.1312332,59.2472074 66.3705813,59.3198921 L66.2261213,59.3267587 L31.064,59.326 L31.0649504,87.9306969 C31.0649504,88.661662 30.5420995,89.2705088 29.8499853,89.4036497 L29.7094104,89.4238303 L29.5649504,89.4306969 L1.73200378,89.4306969 C0.952307667,89.4306969 0.311555107,88.8358088 0.238870363,88.0751569 L0.232003785,87.9306969 L0.232003785,1.8764801 C0.232003785,1.09678398 0.826891868,0.456031422 1.58754377,0.383346679 L1.73200378,0.376 L69.9990038,0.376 C70.5512885,0.376 70.9990038,0.82371525 70.9990038,1.376 Z" id="Path" fill="#000000" fill-rule="nonzero"></path>
    </g>
</svg>