<?xml version="1.0" encoding="UTF-8"?>
<svg width="84px" height="92px" viewBox="0 0 84 92" version="1.1" xmlns="http://www.w3.org/2000/svg" xmlns:xlink="http://www.w3.org/1999/xlink">
    <title>Path</title>
    <g id="Page-1" stroke="none" stroke-width="1" fill="none" fill-rule="evenodd">
        <path d="M27.7282083,0.986039792 C28.5079044,0.986039792 29.148657,1.58092788 29.2213417,2.34157978 L29.2282083,2.48603979 L29.228,24.57 L49.6649944,1.49160418 C49.8785197,1.25047644 50.1618766,1.08666034 50.4713798,1.01982278 L50.628108,0.994576589 L50.7879805,0.986039792 L78.9953338,0.986039792 C79.7750299,0.986039792 80.4157824,1.58092788 80.4884672,2.34157978 L80.4953338,2.48603979 L80.4953338,6.95641529 C80.4953338,7.27024945 80.3969455,7.57479477 80.2160618,7.82809913 L80.118819,7.950287 L52.682,38.964 L83.3575886,84.2847867 C83.4695936,84.4502633 83.546837,84.6355801 83.5858875,84.8295467 L83.6079607,84.9764687 L83.6153899,85.1255853 L83.6153899,90.0481132 C83.6153899,90.8278094 83.0205018,91.4685619 82.2598499,91.5412467 L82.1153899,91.5481132 L54.1024007,91.5481132 C53.637845,91.5481132 53.2026603,91.3331428 52.9202304,90.9714343 L52.831914,90.8455237 L32.562,58.551 L29.228,62.693 L29.2282083,90.0481132 C29.2282083,90.7790783 28.7053574,91.3879251 28.0132432,91.521066 L27.8726683,91.5412467 L27.7282083,91.5481132 L5.999,91.5481132 C5.44671525,91.5481132 4.999,91.100398 4.999,90.5481132 L4.999,89.5470398 C4.99895477,88.994755 5.44667002,88.5470398 5.99895477,88.5470398 C5.99896985,88.5470398 5.99898492,88.5470398 5.999,88.547085 L15.6135,88.5475199 L26.228,88.548 L26.228,88.548 L26.2282083,62.1660641 C26.2282083,61.93147 26.2831982,61.701709 26.386924,61.4945271 L26.4737586,61.3436515 L26.5596586,61.22559 L31.5456106,55.0304884 C32.1610739,54.2657683 33.3195137,54.2955832 33.9017699,55.0542879 L33.984647,55.1735521 L54.931,88.548 L80.615,88.548 L80.615,85.585 L49.5457818,39.6831645 C49.2191206,39.2005543 49.2059002,38.5818005 49.4889616,38.0920876 L49.5734931,37.9619282 L49.6644953,37.8484942 L77.495,6.387 L77.495,3.986 L51.462,3.986 L28.8511944,29.5211799 C27.9968951,30.4859143 26.4523755,29.9862587 26.2502364,28.7928195 L26.2338079,28.6623314 L26.2282083,28.5267443 L26.228,3.986 L3.441,3.986 L3.441,85.9990398 C3.441,86.5513245 2.99328475,86.9990398 2.441,86.9990398 L1.441,86.9990398 C0.88871525,86.9990398 0.441,86.5513245 0.441,85.9990398 L0.441,2.48603979 L0.441,2.48603979 C0.441,1.70634367 1.03608824,1.06559111 1.79674015,0.99290637 L1.94120016,0.986039792 L27.7282083,0.986039792 Z" id="Path" fill="#000000" fill-rule="nonzero"></path>
    </g>
</svg>