<?xml version="1.0" encoding="UTF-8"?>
<svg width="81px" height="90px" viewBox="0 0 81 90" version="1.1" xmlns="http://www.w3.org/2000/svg" xmlns:xlink="http://www.w3.org/1999/xlink">
    <title>Path</title>
    <g id="Page-1" stroke="none" stroke-width="1" fill="none" fill-rule="evenodd">
        <path d="M26.3226486,0.376480101 C26.7857954,0.376480101 27.2198449,0.590157983 27.5023872,0.950054458 L27.5907886,1.07534292 L54.466,43.617 L54.4662507,1.8764801 C54.4662507,1.14551499 54.9891015,0.536668241 55.6812157,0.403527346 L55.8217907,0.383346679 L55.9662507,0.376480101 L79.2449383,0.376480101 C80.0246344,0.376480101 80.6653869,0.971368184 80.7380717,1.73202009 L80.7449383,1.8764801 L80.7449383,87.9306969 C80.7449383,88.710393 80.1500502,89.3511456 79.3893983,89.4238303 L79.2449383,89.4306969 L52.6027279,89.4306969 C52.109368,89.4306969 51.6509859,89.1884378 51.3723447,88.7887262 L51.2942893,88.664174 L27.822,46.792 L27.8221948,82.9994801 C27.8222031,83.5517649 27.3744903,83.9994825 26.8222055,83.9994855 C26.8222037,83.9994855 26.822202,83.9994855 26.8222002,83.9994801 L25.8212002,83.9994801 C25.2689154,83.9995138 24.8212002,83.5517986 24.8212002,82.9995138 C24.8212002,82.9995026 24.8212002,82.9994913 24.8212339,82.9994801 L24.8226486,41.0500635 L24.8226486,41.0500635 C24.8226486,39.6018639 26.6271146,39.0400809 27.475068,40.0857963 L27.5565727,40.1957529 L27.6310871,40.3165864 L53.481,86.43 L77.744,86.43 L77.744,3.376 L57.466,3.376 L57.4662507,48.8000783 C57.4662507,50.2093742 55.7389647,50.7973551 54.8615074,49.8181692 L54.7766899,49.7149991 L54.6981106,49.6012155 L25.496,3.376 L3.441,3.376 L3.441,86.43 L21.9992002,86.4295067 C22.5514849,86.4294654 22.9992121,86.8771688 22.9992267,87.4294535 C22.9992267,87.4294624 22.9992267,87.4294712 22.9992002,87.4294801 L22.9992002,88.4306969 C22.9992002,88.9829817 22.5514849,89.4306969 21.9992002,89.4306969 L1.94120016,89.4306969 L1.94120016,89.4306969 C1.16150404,89.4306969 0.520751483,88.8358088 0.44806674,88.0751569 L0.441200161,87.9306969 L0.441200161,1.8764801 C0.441200161,1.09678398 1.03608824,0.456031422 1.79674015,0.383346679 L1.94120016,0.376480101 L26.3226486,0.376480101 Z" id="Path" fill="#000000" fill-rule="nonzero"></path>
    </g>
</svg>